# xmcd
#
# Track frame offsets: 
#        150
#        16616
#        30578
#        44490
#        58231
#        70948
#        83579
#        96753
#        108954
#        119435
#        131219
#        158193
#        191927
#        223126
#
# Disc length: 3386 seconds
#
# Revision: 0
# Processed by: cddbd v1.5.2PL0 Copyright (c) Steve Scherf et al.
# Submitted via: ExactAudioCopy v0.99pb3
#
DISCID=c60d380e
DTITLE=Otis Rush - An Introduction To Otis Rush
DYEAR=2006
DGENRE=Blues
TTITLE0=I Can't Quit You Baby
TTITLE1=My Love Will Never Die
TTITLE2=If You Were Mine
TTITLE3=Groaning The Blues
TTITLE4=Three Times A Fool
TTITLE5=She's A Good'Un
TTITLE6=Checking On My Baby
TTITLE7=Double Trouble
TTITLE8=Keep On Loving Me Baby
TTITLE9=All Your Love (I Miss Loving)
TTITLE10=It's So Hard For Me To Believe You Baby (Live)
TTITLE11=It's My Own Fault (Live)
TTITLE12=Crosscut Saw (Live)
TTITLE13=All Your Love (I Miss Loving) (Live)
EXTD=
EXTT0=
EXTT1=
EXTT2=
EXTT3=
EXTT4=
EXTT5=
EXTT6=
EXTT7=
EXTT8=
EXTT9=
EXTT10=
EXTT11=
EXTT12=
EXTT13=
PLAYORDER=
